<svg width="88" height="88" viewBox="0 0 88 88" fill="none" xmlns="http://www.w3.org/2000/svg">
<mask id="mask0_0_35" style="mask-type:luminance" maskUnits="userSpaceOnUse" x="0" y="0" width="80" height="80">
<path fill-rule="evenodd" clip-rule="evenodd" d="M0 0H80V80H0V0Z" fill="white"/>
</mask>
<g mask="url(#mask0_0_35)">
<path fill-rule="evenodd" clip-rule="evenodd" d="M33.3333 13.3333C31.4923 13.3333 30 14.8257 30 16.6666V53.3333C30 55.1743 31.4923 56.6666 33.3333 56.6666H70C71.841 56.6666 73.3333 55.1743 73.3333 53.3333V16.6666C73.3333 14.8257 71.841 13.3333 70 13.3333H33.3333Z" fill="white" stroke="#808080" stroke-width="1.5" stroke-linejoin="round"/>
<path fill-rule="evenodd" clip-rule="evenodd" d="M30 56.6666V33.3333H18.3333L6.66663 44.1025V56.6666H30Z" fill="white" stroke="#808080" stroke-width="1.5" stroke-linejoin="round"/>
<path fill-rule="evenodd" clip-rule="evenodd" d="M30 60C30 63.6818 27.0151 66.6667 23.3333 66.6667C19.6515 66.6667 16.6666 63.6818 16.6666 60" fill="black" fill-opacity="0.01"/>
<path d="M30 60C30 63.6818 27.0151 66.6667 23.3333 66.6667C19.6515 66.6667 16.6666 63.6818 16.6666 60" stroke="#808080" stroke-width="1.5" stroke-linecap="round" stroke-linejoin="round"/>
<path fill-rule="evenodd" clip-rule="evenodd" d="M66.6667 60C66.6667 63.6818 63.6819 66.6667 60 66.6667C56.3182 66.6667 53.3334 63.6818 53.3334 60" fill="black" fill-opacity="0.01"/>
<path d="M66.6667 60C66.6667 63.6818 63.6819 66.6667 60 66.6667C56.3182 66.6667 53.3334 63.6818 53.3334 60" stroke="#808080" stroke-width="1.5" stroke-linecap="round" stroke-linejoin="round"/>
</g>
</svg>
