<svg width="88" height="88" viewBox="0 0 88 88" fill="none" xmlns="http://www.w3.org/2000/svg">
<g id="&#208;&#162;&#209;&#128;&#208;&#176;&#208;&#180;&#208;&#184;&#209;&#134;&#208;&#184;&#208;&#190;&#208;&#189;&#208;&#189;&#208;&#176;&#209;&#143; &#208;&#186;&#208;&#184;&#209;&#130;&#208;&#176;&#208;&#185;&#209;&#129;&#208;&#186;&#208;&#176;&#209;&#143; &#208;&#188;&#208;&#181;&#208;&#180;&#208;&#184;&#209;&#134;&#208;&#184;&#208;&#189;&#208;&#176;">
<mask id="mask0_0_42" style="mask-type:luminance" maskUnits="userSpaceOnUse" x="0" y="0" width="80" height="80">
<path id="&#208;&#162;&#209;&#128;&#208;&#176;&#208;&#180;&#208;&#184;&#209;&#134;&#208;&#184;&#208;&#190;&#208;&#189;&#208;&#189;&#208;&#176;&#209;&#143; &#208;&#186;&#208;&#184;&#209;&#130;&#208;&#176;&#208;&#185;&#209;&#129;&#208;&#186;&#208;&#176;&#209;&#143; &#208;&#188;&#208;&#181;&#208;&#180;&#208;&#184;&#209;&#134;&#208;&#184;&#208;&#189;&#208;&#176;_2" fill-rule="evenodd" clip-rule="evenodd" d="M0 0H80V80H0V0Z" fill="white"/>
</mask>
<g mask="url(#mask0_0_42)">
<path id="path" fill-rule="evenodd" clip-rule="evenodd" d="M49.9252 71.6667C50.0634 67.1052 50.7321 64.597 51.931 64.142C64.4474 59.3928 73.3333 47.39 73.3333 33.3333H6.66663C6.66663 47.0857 15.172 58.8724 27.2613 63.8235C28.5252 64.3412 29.4691 66.9555 30.0933 71.6667C35.1428 71.6667 38.445 71.6667 40 71.6667C41.4421 71.6667 44.7504 71.6667 49.9252 71.6667Z" fill="white" stroke="#808080" stroke-width="1.5" stroke-linejoin="round"/>
<g id="path_2">
<path fill-rule="evenodd" clip-rule="evenodd" d="M24.0723 45.0375C24.6716 47.0172 25.4643 48.6517 26.4503 49.941C27.4139 51.2015 28.6031 52.3705 30.0173 53.448" fill="black" fill-opacity="0.01"/>
<path d="M24.0723 45.0375C24.6716 47.0172 25.4643 48.6517 26.4503 49.941C27.4139 51.2015 28.6031 52.3705 30.0173 53.448" stroke="white" stroke-width="1.5" stroke-linecap="round"/>
</g>
<g id="path_3">
<path fill-rule="evenodd" clip-rule="evenodd" d="M42.0232 33.3773C48.2829 20.458 51.9617 12.842 53.0597 10.5296C54.8085 6.84652 58.3593 5.96024 61.6347 7.35949C64.9099 8.75875 66.2352 12.7638 64.8604 15.5552C64.0113 17.2792 61.1277 23.2075 56.2097 33.34" fill="black" fill-opacity="0.01"/>
<path d="M42.0232 33.3773C48.2829 20.458 51.9617 12.842 53.0597 10.5296C54.8085 6.84652 58.3593 5.96024 61.6347 7.35949C64.9099 8.75875 66.2352 12.7638 64.8604 15.5552C64.0113 17.2792 61.1277 23.2075 56.2097 33.34" stroke="#808080" stroke-width="1.5" stroke-linecap="round"/>
</g>
</g>
</g>
</svg>
